<?xml version="1.0" encoding="UTF-8" standalone="no"?>
<svg viewBox="0 0 366.19431 192.80281" xmlns="http://www.w3.org/2000/svg">
<defs>
<radialGradient cx="325.26562" cy="328.42188" gradientTransform="matrix(1,0,0,.52148,0,157.15804)" gradientUnits="userSpaceOnUse" id="radialGradient2736" r="181.09038">
<stop offset="0" stop-color="#fff"/>
<stop offset="1" stop-color="#89b9ff" stop-opacity="0"/>
</radialGradient>
</defs>
<g transform="translate(-142.21806,-232.18344)">
<path d="m337.40625,235.28125c-37.51431,0-69.20297,23.92351-79.0625,56.59375-4.10447-2.3209-8.82641-3.65625-13.875-3.65625-15.61292,0-28.28125,12.66833-28.28125,28.28125 0,.15902-.00262.31035 0,.46875-4.67691-.95818-9.58057-1.5-14.65625-1.5-30.94703,0-56.06249,19.01812-56.0625,42.4375s25.11546,42.43751 56.0625,42.4375c12.25729,0 23.58285-3.00591 32.8125-8.0625 5.51225,16.49215 21.06763,28.40625 39.40625,28.40625 12.42663,0 23.56937-5.47132 31.1875-14.125 7.39058,3.86601 16.0817,6.09375 25.375,6.09375 12.64444,0 24.18371-4.11309 32.84375-10.875 11.66957,12.11137 28.82883,19.78124 47.96875,19.78125 23.48057,0 44.0021-11.55329 55.03125-28.6875 1.66035.24333 3.36379.375 5.09375.375 18.67974,0 33.81249-14.69036 33.8125-32.8125s-15.13276-32.84375-33.8125-32.84375c-3.34257,0-6.57451.49782-9.625,1.375-10.06556-11.86503-25.11491-20.09082-42.3125-22.09375-3.51783-40.08191-38.84906-71.59376-81.90625-71.59375z" fill="url(#radialGradient2736)" stroke="#000" stroke-width="2.587"/>
<path d="m335.61722,233.49985c-34.28963.10255-67.81382,23.00758-78.46875,55.71875-15.50903-7.86479-36.34131,1.23339-41.375,17.78125-.82464,2.50931-1.366,5.14005-1.5,7.78125-24.33266-4.28523-53.11027,3.67782-66.15625,25.875-8.72578,14.48206-4.48487,34.12604 7.9375,45.0625 20.14505,19.15881 53.12888,21.18262 77.28125,9.8125 7.8359,20.92676 33.25919,32.76583 54.40625,25.0625 6.73489-2.17895 12.87104-6.49603 17.75-11.3125 18.13718,8.74906 41.09843,7.19447 57.46875-4.65625 26.25829,26.37123 74.15346,25.29791 98.84375-2.65625 2.94877-2.01374 3.79092-7.90378 8.09375-6.5625 19.94467,1.38398 38.72503-16.46878 37.125-36.625-.65236-20.76021-22.11224-36.666-42.25-32.40625-4.15336,1.72099-5.74437-4.41954-9.15625-5.96875-9.65674-8.48386-22.47492-13.10657-34.5-15.4375-3.66492-36.20074-34.97739-65.81697-70.58338-70.51866-4.92069-.74522-9.92715-1.06536-14.91662-.95009z" fill="none" stroke="#a3ced5" stroke-width="2.587"/>
</g>
</svg>
