<?xml version="1.0" encoding="UTF-8" standalone="no"?>
<svg viewBox="0 0 168.69321 236.61623" xmlns="http://www.w3.org/2000/svg" xmlns:xlink="http://www.w3.org/1999/xlink">
<defs>
<filter id="filter3840">
<feGaussianBlur stdDeviation="1.8976"/>
</filter>
<filter id="filter4003">
<feGaussianBlur stdDeviation="3.5595"/>
</filter>
<filter id="filter4073">
<feGaussianBlur stdDeviation="3.0194"/>
</filter>
<filter id="filter4201">
<feGaussianBlur stdDeviation="6.9348"/>
</filter>
<linearGradient id="linearGradient3764">
<stop offset="0"/>
<stop offset="1" stop-opacity="0"/>
</linearGradient>
<linearGradient gradientUnits="userSpaceOnUse" id="linearGradient4274" x1="707.39105" x2="357.12946" y1="792.52765" y2="534.98236">
<stop offset="0" stop-color="#fff"/>
<stop offset="1" stop-color="#fff" stop-opacity="0"/>
</linearGradient>
<linearGradient gradientUnits="userSpaceOnUse" id="linearGradient4276" x1="672.73278" x2="754.98115" xlink:href="#linearGradient3764" y1="345.56219" y2="396.07695"/>
<linearGradient gradientUnits="userSpaceOnUse" id="linearGradient4278" x1="878.0299" x2="767.28604" xlink:href="#linearGradient3764" y1="373.41006" y2="412.9152"/>
</defs>
<g transform="matrix(.61225,0,0,.61225,-126.53287,-132.53998)">
<path d="m236.05032,273.76227h216.76252a12.73944,12.73944 0 0,1 12.73944,12.73944v287.06196a12.73944,12.73944 0 0,1 -12.73944,12.73944h-216.76252a12.73944,12.73944 0 0,1 -12.73944-12.73944v-287.06196a12.73944,12.73944 0 0,1 12.73944-12.73944" fill-rule="evenodd" filter="url(#filter4201)"/>
<g fill="#808080" transform="translate(-408.58062,-119.88594)">
<path d="m754.97663,343.61149c-11.98206,0-21.69438,9.72999-21.69438,21.71205 0,5.48291 2.03818,10.48429 5.39265,14.30379-27.99823,23.18231-67.6251,19.25652-67.87669,37.1651h168.37451c-.005-18.40248-41.4524-12.72353-67.87669-37.1651 3.35288-3.81911 5.37497-8.82234 5.37497-14.30379 0-11.98206-9.71231-21.71205-21.69437-21.71205z" fill="#808080" fill-rule="evenodd" opacity=".99"/>
<path d="m754.97663,343.6115c-11.98206,0-21.69438,9.72999-21.69438,21.71205 0,5.48291 2.03818,10.48429 5.39265,14.30379-27.99823,23.18231-67.6251,19.25652-67.87669,37.1651h168.37451c-.005-18.40248-41.4524-12.72353-67.87669-37.1651 3.35288-3.81911 5.37497-8.82234 5.37497-14.30379 0-11.98206-9.71231-21.71205-21.69437-21.71205z" fill="#808080" fill-rule="evenodd" opacity=".7"/>
<path d="m754.97663,343.6115c-11.98206,0-21.69438,9.72999-21.69438,21.71205 0,5.48291 2.03818,10.48429 5.39265,14.30379-27.99823,23.18231-67.6251,19.25652-67.87669,37.1651h168.37451c-.005-18.40248-41.4524-12.72353-67.87669-37.1651 3.35288-3.81911 5.37497-8.82234 5.37497-14.30379 0-11.98206-9.71231-21.71205-21.69437-21.71205z" fill="#808080" fill-rule="evenodd" opacity=".7"/>
<path d="m727.99465,311.20413c0,7.90213-6.40594,14.30807-14.30807,14.30807s-14.30807-6.40594-14.30807-14.30807 6.40595-14.30807 14.30807-14.30807 14.30807,6.40594 14.30807,14.30807z" fill="#808080" fill-rule="evenodd" transform="matrix(.56579,0,0,.56579,351.23206,190.32681)"/>
</g>
<g transform="matrix(.79262,0,0,.74197,70.37097,68.28956)">
<path d="m205.70343,268.84598h277.68231a17.40297,17.40297 0 0,1 17.40297,17.40297v392.14688a17.40297,17.40297 0 0,1 -17.40297,17.40297h-277.68231a17.40297,17.40297 0 0,1 -17.40297-17.40297v-392.14688a17.40297,17.40297 0 0,1 17.40297-17.40297" fill="#2b1100" fill-rule="evenodd"/>
<path d="m205.70343,268.84598h277.68231a17.40297,17.40297 0 0,1 17.40297,17.40297v392.14688a17.40297,17.40297 0 0,1 -17.40297,17.40297h-277.68231a17.40297,17.40297 0 0,1 -17.40297-17.40297v-392.14688a17.40297,17.40297 0 0,1 17.40297-17.40297" fill="url(#linearGradient4274)" fill-rule="evenodd" opacity=".5981"/>
<path d="m206.03622,269.42456h271.28102a17.16969,17.16969 0 0,1 17.16969,17.16969v386.89021a17.16969,17.16969 0 0,1 -17.16969,17.16968h-271.28102a17.16969,17.16969 0 0,1 -17.16968-17.16968v-386.89021a17.16969,17.16969 0 0,1 17.16968-17.16969" fill="#803300" fill-rule="evenodd"/>
<g opacity=".1196" transform="matrix(.8845,0,0,.73234,63.37985,142.27378)">
<path d="m396.10208,451.87806c16.41397,81.36376-20.39651,225.05567-62.40963,146.96487-12.97288-24.113-61.93467-78.7474-62.40962-146.96487-.54426-78.17274 31.08274-145.70002 62.40962-146.96486 30.73014-1.24075 45.47247,63.00761 62.40963,146.96486z" fill="#d45500" fill-rule="evenodd"/>
<path d="m385.24682,458.5326c12.93492,64.11822-16.07334,177.35375-49.18153,115.81477-10.2232-19.0021-48.80724-62.0564-49.18152-115.81477-.4289-61.60355 24.49456-114.81801 49.18152-115.81476 24.2167-.97777 35.8343,49.65276 49.18153,115.81476z" fill="#f60" fill-rule="evenodd"/>
<path d="m366.91139,466.48174c7.26804,46.87268-9.0315,129.65183-27.63475,84.66468-5.74435-13.89121-27.42446-45.36542-27.63476-84.66468-.241-45.03435 13.76332-83.93598 27.63476-84.66464 13.60719-.71479 20.13504,36.29791 27.63475,84.66464z" fill="#ff7f2a" fill-rule="evenodd"/>
</g>
<path d="m450.32677,462.18523c24.26274,89.60394-30.14963,247.84837-92.25242,161.84887-19.17619-26.55507-91.55035-86.72261-92.2524-161.84887-.80451-86.08974 45.94577-160.4559 92.2524-161.84884 45.42456-1.3664 67.21633,69.38877 92.25242,161.84884z" fill="none" filter="url(#filter3840)" opacity=".8325" stroke="#520" stroke-width=".85131"/>
<path d="m450.32677,462.18523c24.26274,89.60394-30.14963,247.84837-92.25242,161.84887-19.17619-26.55507-91.55035-86.72261-92.2524-161.84887-.80451-86.08974 45.94577-160.4559 92.2524-161.84884 45.42456-1.3664 67.21633,69.38877 92.25242,161.84884z" fill="none" filter="url(#filter3840)" opacity=".8904" stroke="#520" stroke-width=".85131" transform="matrix(1.41692,0,0,1.16063,-156.98655,-72.48635)"/>
<path d="m206.03622,269.64929h271.28102a17.16969,17.16969 0 0,1 17.16969,17.16969v386.89021a17.16969,17.16969 0 0,1 -17.16969,17.16968h-271.28102a17.16969,17.16969 0 0,1 -17.16968-17.16968v-386.89021a17.16969,17.16969 0 0,1 17.16968-17.16969" fill="#fff" fill-rule="evenodd" opacity=".1005"/>
</g>
<g transform="translate(-569.18845,32.72183)">
<path d="m819.60086,255.28233h183.60917a6.48032,6.48032 0 0,1 6.48032,6.48032v265.07438a6.48032,6.48032 0 0,1 -6.48032,6.48032h-183.60917a6.48032,6.48032 0 0,1 -6.48032-6.48032v-265.07438a6.48032,6.48032 0 0,1 6.48032-6.48032" fill-rule="evenodd" filter="url(#filter4003)" stroke="#000" stroke-linecap="round" stroke-linejoin="round" stroke-width="1.08667"/>
<g transform="translate(569.18845,-32.40162)">
<path d="m250.4124,287.68396h183.60917a6.48032,6.48032 0 0,1 6.48032,6.48032v265.07438a6.48032,6.48032 0 0,1 -6.48032,6.48032h-183.60917a6.48032,6.48032 0 0,1 -6.48032-6.48032v-265.07438a6.48032,6.48032 0 0,1 6.48032-6.48032" fill="#fff" fill-rule="evenodd" stroke="#999" stroke-linecap="round" stroke-linejoin="round" stroke-width="1.08667"/>
<path d="m265.69328,297.42655v264.52523" fill="none" stroke="#800000" stroke-width="1.06484"/>
<path d="m438.58782,315.76537h-193.496" fill="none" stroke="#800000" stroke-width=".98092"/>
<path d="m430.02866,336.98655h-160.18235" fill="none" stroke="#000080" stroke-width=".32546"/>
<path d="m430.02866,352.27221h-160.18235" fill="none" stroke="#000080" stroke-width=".32546"/>
<path d="m430.02866,367.55794h-160.18235" fill="none" stroke="#000080" stroke-width=".32546"/>
<path d="m430.02866,382.84366h-160.18235" fill="none" stroke="#000080" stroke-width=".32546"/>
<path d="m430.02866,398.12939h-160.18235" fill="none" stroke="#000080" stroke-width=".32546"/>
<path d="m430.02866,413.41512h-160.18235" fill="none" stroke="#000080" stroke-width=".32546"/>
<path d="m430.02866,428.70084h-160.18235" fill="none" stroke="#000080" stroke-width=".32546"/>
<path d="m430.02866,443.98651h-160.18235" fill="none" stroke="#000080" stroke-width=".32546"/>
<path d="m430.02866,459.27223h-160.18235" fill="none" stroke="#000080" stroke-width=".32546"/>
<path d="m430.02866,474.55796h-160.18235" fill="none" stroke="#000080" stroke-width=".32546"/>
<path d="m430.02866,489.84369h-160.18235" fill="none" stroke="#000080" stroke-width=".32546"/>
<path d="m430.02866,505.12941h-160.18235" fill="none" stroke="#000080" stroke-width=".32546"/>
<path d="m430.02866,520.41514h-160.18235" fill="none" stroke="#000080" stroke-width=".32546"/>
<path d="m430.02866,535.70083h-160.18235" fill="none" stroke="#000080" stroke-width=".32546"/>
<path d="m430.02866,550.98653h-160.18235" fill="none" stroke="#000080" stroke-width=".32546"/>
</g>
</g>
<path d="m343.47606,223.72556c-11.98206,0-21.69438,9.72999-21.69438,21.71205 0,5.48291 2.03818,10.48429 5.39265,14.30379-27.99823,23.18231-67.6251,19.25652-67.87669,37.1651h168.37451c-.005-18.40248-41.4524-12.72353-67.87669-37.1651 3.35288-3.81911 5.37497-8.82234 5.37497-14.30379 0-11.98206-9.71231-21.71205-21.69437-21.71205z" fill="#1a1a1a" fill-rule="evenodd" filter="url(#filter4073)" opacity=".7"/>
<g transform="translate(-565.18845,34.72183)">
<path d="m819.60086,255.28233h183.60917a6.48032,6.48032 0 0,1 6.48032,6.48032v265.07438a6.48032,6.48032 0 0,1 -6.48032,6.48032h-183.60917a6.48032,6.48032 0 0,1 -6.48032-6.48032v-265.07438a6.48032,6.48032 0 0,1 6.48032-6.48032" fill-rule="evenodd" filter="url(#filter4003)" stroke="#000" stroke-linecap="round" stroke-linejoin="round" stroke-width="1.08667"/>
<g transform="translate(569.18845,-32.40162)">
<path d="m250.4124,287.68396h183.60917a6.48032,6.48032 0 0,1 6.48032,6.48032v265.07438a6.48032,6.48032 0 0,1 -6.48032,6.48032h-183.60917a6.48032,6.48032 0 0,1 -6.48032-6.48032v-265.07438a6.48032,6.48032 0 0,1 6.48032-6.48032" fill="#fff" fill-rule="evenodd" stroke="#999" stroke-linecap="round" stroke-linejoin="round" stroke-width="1.08667"/>
<path d="m265.69328,297.42655v264.52523" fill="none" stroke="#800000" stroke-width="1.06484"/>
<path d="m438.58782,315.76537h-193.496" fill="none" stroke="#800000" stroke-width=".98092"/>
<path d="m430.02866,336.98655h-160.18235" fill="none" stroke="#000080" stroke-width=".32546"/>
<path d="m430.02866,352.27221h-160.18235" fill="none" stroke="#000080" stroke-width=".32546"/>
<path d="m430.02866,367.55794h-160.18235" fill="none" stroke="#000080" stroke-width=".32546"/>
<path d="m430.02866,382.84366h-160.18235" fill="none" stroke="#000080" stroke-width=".32546"/>
<path d="m430.02866,398.12939h-160.18235" fill="none" stroke="#000080" stroke-width=".32546"/>
<path d="m430.02866,413.41512h-160.18235" fill="none" stroke="#000080" stroke-width=".32546"/>
<path d="m430.02866,428.70084h-160.18235" fill="none" stroke="#000080" stroke-width=".32546"/>
<path d="m430.02866,443.98651h-160.18235" fill="none" stroke="#000080" stroke-width=".32546"/>
<path d="m430.02866,459.27223h-160.18235" fill="none" stroke="#000080" stroke-width=".32546"/>
<path d="m430.02866,474.55796h-160.18235" fill="none" stroke="#000080" stroke-width=".32546"/>
<path d="m430.02866,489.84369h-160.18235" fill="none" stroke="#000080" stroke-width=".32546"/>
<path d="m430.02866,505.12941h-160.18235" fill="none" stroke="#000080" stroke-width=".32546"/>
<path d="m430.02866,520.41514h-160.18235" fill="none" stroke="#000080" stroke-width=".32546"/>
<path d="m430.02866,535.70083h-160.18235" fill="none" stroke="#000080" stroke-width=".32546"/>
<path d="m430.02866,550.98653h-160.18235" fill="none" stroke="#000080" stroke-width=".32546"/>
</g>
</g>
<g transform="translate(-412.58062,-119.88594)">
<path d="m754.97663,343.61149c-11.98206,0-21.69438,9.72999-21.69438,21.71205 0,5.48291 2.03818,10.48429 5.39265,14.30379-27.99823,23.18231-67.6251,19.25652-67.87669,37.1651h168.37451c-.005-18.40248-41.4524-12.72353-67.87669-37.1651 3.35288-3.81911 5.37497-8.82234 5.37497-14.30379 0-11.98206-9.71231-21.71205-21.69437-21.71205z" fill="#ccc" fill-rule="evenodd" opacity=".99"/>
<path d="m754.97663,343.6115c-11.98206,0-21.69438,9.72999-21.69438,21.71205 0,5.48291 2.03818,10.48429 5.39265,14.30379-27.99823,23.18231-67.6251,19.25652-67.87669,37.1651h168.37451c-.005-18.40248-41.4524-12.72353-67.87669-37.1651 3.35288-3.81911 5.37497-8.82234 5.37497-14.30379 0-11.98206-9.71231-21.71205-21.69437-21.71205z" fill="url(#linearGradient4276)" fill-rule="evenodd" opacity=".7"/>
<path d="m754.97663,343.6115c-11.98206,0-21.69438,9.72999-21.69438,21.71205 0,5.48291 2.03818,10.48429 5.39265,14.30379-27.99823,23.18231-67.6251,19.25652-67.87669,37.1651h168.37451c-.005-18.40248-41.4524-12.72353-67.87669-37.1651 3.35288-3.81911 5.37497-8.82234 5.37497-14.30379 0-11.98206-9.71231-21.71205-21.69437-21.71205z" fill="url(#linearGradient4278)" fill-rule="evenodd" opacity=".7"/>
<path d="m727.99465,311.20413c0,7.90213-6.40594,14.30807-14.30807,14.30807s-14.30807-6.40594-14.30807-14.30807 6.40595-14.30807 14.30807-14.30807 14.30807,6.40594 14.30807,14.30807z" fill="#fff" fill-rule="evenodd" transform="matrix(.56579,0,0,.56579,351.23206,190.32681)"/>
</g>
</g>
</svg>
